<?xml version="1.0" standalone="no"?><!DOCTYPE svg PUBLIC "-//W3C//DTD SVG 1.1//EN" "http://www.w3.org/Graphics/SVG/1.1/DTD/svg11.dtd"><svg t="1557389344626" class="icon" style="" viewBox="0 0 1024 1024" version="1.1" xmlns="http://www.w3.org/2000/svg" p-id="5979" xmlns:xlink="http://www.w3.org/1999/xlink" width="48" height="48"><defs><style type="text/css"></style></defs><path d="M617.641658 222.72a34.909091 34.909091 0 0 0-49.361454-0.093091L315.352204 474.600727a34.909091 34.909091 0 1 0 49.268363 49.454546l252.904728-251.973818a34.909091 34.909091 0 0 0 0.09309-49.338182z m-178.036363 410.856727c8.936727 0 17.850182-3.397818 24.66909-10.193454L717.179113 371.432727a34.909091 34.909091 0 1 0-49.268364-49.454545L414.959476 573.928727a34.909091 34.909091 0 0 0 24.645819 59.648z m-15.034182 252.648728l-354.699637 67.490909 65.303273-355.933091L424.571113 886.225455z m585.681454-508.346182L644.870749 13.730909A46.894545 46.894545 0 0 0 611.707113 0c-12.032 0-24.064 4.561455-33.233455 13.730909L80.22784 510.254545 1.170385 941.102545C-6.858705 985.134545 27.538385 1024 70.24384 1024c4.421818 0 8.983273-0.418909 13.568-1.303273L512.006749 940.683636 750.552204 702.906182a34.885818 34.885818 0 1 0-49.268364-49.454546l-205.684364 204.986182L162.683113 526.661818 611.68384 79.173818 944.576931 410.996364l-127.906909 127.488a34.885818 34.885818 0 1 0 49.268363 49.431272l144.29091-143.802181a46.708364 46.708364 0 0 0 0-66.21091z" p-id="5980" fill="#999999"></path></svg>