<?xml version="1.0" standalone="no"?><!DOCTYPE svg PUBLIC "-//W3C//DTD SVG 1.1//EN" "http://www.w3.org/Graphics/SVG/1.1/DTD/svg11.dtd"><svg t="1557389327841" class="icon" style="" viewBox="0 0 1024 1024" version="1.1" xmlns="http://www.w3.org/2000/svg" p-id="5655" xmlns:xlink="http://www.w3.org/1999/xlink" width="48" height="48"><defs><style type="text/css"></style></defs><path d="M768 96H320c-88 0-160 72-160 160v96h-32c-17.6 0-32 14.4-32 32s14.4 32 32 32h32v192h-32c-17.6 0-32 14.4-32 32s14.4 32 32 32h32v96c0 88 72 160 160 160h448c88 0 160-72 160-160V256c0-88-72-160-160-160z m96 672c0 52.8-43.2 96-96 96H320c-52.8 0-96-43.2-96-96v-96h32c17.6 0 32-14.4 32-32s-14.4-32-32-32h-32V416h32c17.6 0 32-14.4 32-32s-14.4-32-32-32h-32v-96c0-52.8 43.2-96 96-96h448c52.8 0 96 43.2 96 96v512z" p-id="5656" fill="#999999"></path><path d="M659.2 464c17.6-22.4 28.8-49.6 28.8-80 0-70.4-57.6-128-128-128s-128 57.6-128 128c0 30.4 11.2 57.6 28.8 80C387.2 496 336 577.6 336 672c0 52.8 43.2 96 96 96h256c52.8 0 96-43.2 96-96 0-94.4-51.2-176-124.8-208zM560 320c35.2 0 64 28.8 64 64s-28.8 64-64 64-64-28.8-64-64 28.8-64 64-64z m128 384H432c-17.6 0-32-14.4-32-32 0-88 59.2-160 131.2-160h56c72 0 131.2 72 131.2 160 1.6 17.6-12.8 32-30.4 32z" p-id="5657" fill="#999999"></path></svg>