<?xml version="1.0" standalone="no"?><!DOCTYPE svg PUBLIC "-//W3C//DTD SVG 1.1//EN" "http://www.w3.org/Graphics/SVG/1.1/DTD/svg11.dtd"><svg t="1557389161996" class="icon" style="" viewBox="0 0 1024 1024" version="1.1" xmlns="http://www.w3.org/2000/svg" p-id="2163" xmlns:xlink="http://www.w3.org/1999/xlink" width="48" height="48"><defs><style type="text/css"></style></defs><path d="M832 320c0-179.2-140.8-320-320-320S192 140.8 192 320c0 102.4 51.2 198.4 128 256l0 0 0 268.8c0 19.2 6.4 32 12.8 51.2 25.6 76.8 96 128 179.2 128 83.2 0 153.6-51.2 179.2-128 6.4-12.8 12.8-32 12.8-51.2L704 576l0 0C780.8 518.4 832 422.4 832 320zM512 960c-70.4 0-128-57.6-128-128l256 0C640 902.4 582.4 960 512 960zM640 768 384 768l0-64 256 0L640 768zM640 537.6 640 640 384 640 384 537.6C307.2 499.2 256 416 256 320c0-140.8 115.2-256 256-256s256 115.2 256 256C768 416 716.8 499.2 640 537.6z" p-id="2164" fill="#999999"></path></svg>